<?xml version="1.0" encoding="utf-8"?>
<!-- Generator: Adobe Illustrator 24.2.3, SVG Export Plug-In . SVG Version: 6.00 Build 0)  -->
<svg version="1.1" id="Capa_1" xmlns="http://www.w3.org/2000/svg" xmlns:xlink="http://www.w3.org/1999/xlink" x="0px" y="0px"
	 viewBox="0 0 407.4 407.4" style="enable-background:new 0 0 407.4 407.4;" xml:space="preserve">
<style type="text/css">
	.st0{fill:#000014;}
</style>
<g>
	<path class="st0" d="M402,322.4l-88.9-88.9c12.4-17.7,19.1-38.6,19.1-60.7c0-28.3-11-54.8-31-74.8c-20-20-46.5-31-74.8-31
		c-2.1,0-4.1,0.1-6.2,0.2v30.7c2.1-0.2,4.1-0.3,6.2-0.3c20.1,0,39,7.8,53.2,22c14.2,14.2,22,33.1,22,53.2c0,20.1-7.8,39-22,53.2
		c-14.2,14.2-33.1,22-53.2,22c-20.1,0-39-7.8-53.2-22c-4.7-4.7-8.7-9.9-11.9-15.5c-4,2.3-8.6,3.6-13.5,3.6
		c-9.4,0-17.8-4.8-22.6-12.2c-0.1,0.2-0.2,0.3-0.3,0.5c4.9,16.9,14,32.4,26.8,45.1c20,20,46.5,31,74.8,31c22,0,43-6.7,60.7-19.1
		l88.9,88.9c3.6,3.6,8.3,5.4,13,5.4c4.7,0,9.4-1.8,13-5.4C409.2,341.2,409.2,329.5,402,322.4z"/>
	<path class="st0" d="M102.6,135.2c-6.7,0-12.1,5.4-12.1,12.1V187c0,6.7,5.4,12.1,12.1,12.1c6.7,0,12.1-5.4,12.1-12.1v-39.7
		C114.7,140.6,109.3,135.2,102.6,135.2z"/>
	<path class="st0" d="M12.1,135.2c-6.7,0-12.1,5.4-12.1,12.1V187c0,6.7,5.4,12.1,12.1,12.1c6.7,0,12.1-5.4,12.1-12.1v-39.7
		C24.1,140.6,18.7,135.2,12.1,135.2z"/>
	<path class="st0" d="M57.3,85.4c-6.7,0-12.1,5.4-12.1,12.1V187c0,6.7,5.4,12.1,12.1,12.1c6.7,0,12.1-5.4,12.1-12.1V97.5
		C69.4,90.8,64,85.4,57.3,85.4z"/>
	<path class="st0" d="M193.1,199.1c6.7,0,12.1-5.4,12.1-12.1V65.8c0-6.7-5.4-12.1-12.1-12.1c-6.7,0-12.1,5.4-12.1,12.1V187
		C181.1,193.6,186.5,199.1,193.1,199.1z"/>
	<path class="st0" d="M147.9,199.1c6.7,0,12.1-5.4,12.1-12.1V97.5c0-6.7-5.4-12.1-12.1-12.1c-6.7,0-12.1,5.4-12.1,12.1V187
		C135.8,193.6,141.2,199.1,147.9,199.1z"/>
</g>
</svg>
