<?xml version="1.0" encoding="utf-8"?>
<!-- Generator: Adobe Illustrator 24.2.3, SVG Export Plug-In . SVG Version: 6.00 Build 0)  -->
<svg version="1.1" id="Capa_1" xmlns="http://www.w3.org/2000/svg" xmlns:xlink="http://www.w3.org/1999/xlink" x="0px" y="0px"
	 viewBox="0 0 512 512" style="enable-background:new 0 0 512 512;" xml:space="preserve">
<style type="text/css">
	.st0{fill:#000014;}
</style>
<g>
	<g>
		<g>
			<path class="st0" d="M455.2,165.1c23.1-23.1,23.1-60.6,0-83.7l-41.9-41.9l-36.7,36.7c-35.9-24.3-77.8-37-121.6-36.7
				C136,40.1,39.3,137.4,39.5,256.3c0.1,57.8,22.7,112.1,63.5,152.8c40.9,40.8,95.2,63.3,153,63.3c11.4,0,22.8-0.9,34-2.6
				c17.1-2.7,31.5-13,39.6-28.2c8.3-15.5,8.7-33.6,1.3-49.6c-8.1-17.5-12.3-36.3-12.3-55.7c0-24.9,7-49.3,20.2-70.3
				c9.6-15.1,22.1-28.2,36.6-38.2l7.4,215.6v0.2c0.8,16.2,14.2,28.9,30.4,28.9c16.2,0,29.6-12.8,30.4-29l7.5-218.6
				c2.7-3.6,4.4-8,4.4-12.9v-33.8c0-3.9-1.1-7.6-3-10.7C453.5,166.7,454.3,165.9,455.2,165.1z M371,178.2v22.4
				c-21.7,12.8-40.2,30.5-53.6,51.9c-15.8,25-24.2,54-24.2,83.8c0,23.2,4.9,45.5,14.6,66.4c4.1,8.7,3.8,18.5-0.7,26.9
				c-4.3,8.1-12.1,13.7-21.1,15.1c-9.9,1.5-20,2.4-30,2.4c-51,0-98.9-19.9-135.1-55.9c-36-36-56-83.9-56.1-134.9
				c-0.2-105,85.2-191,190.2-191.5c38-0.2,74.3,10.6,105.6,31.2c-4.3,8.3-6.6,17.6-6.6,27.1c0,15.8,6.2,30.7,17.3,41.9
				c0.8,0.8,1.7,1.6,2.5,2.4C372.1,170.6,371,174.3,371,178.2z M418.4,442.4c-0.2,2.7-2.4,4.7-5.1,4.7c-2.7,0-4.9-2.1-5.1-4.7
				L401,233.2h24.4L418.4,442.4z M430.2,207.8h-33.8v-25.4h33.8V207.8z M437.2,147.2c-6.4,6.4-14.9,9.9-23.9,9.9
				c-9,0-17.5-3.6-23.9-9.9l0,0c-13.2-13.2-13.2-34.7,0-47.9l23.9-23.9l23.9,23.9c6.4,6.4,9.9,14.9,9.9,23.9
				S443.7,140.7,437.2,147.2z"/>
		</g>
	</g>
	<g>
		<g>
			<path class="st0" d="M218,332.1c-21,0-38.1,17.1-38.1,38.1s17.1,38.1,38.1,38.1s38.1-17.1,38.1-38.1S238.9,332.1,218,332.1z
				 M218,382.9c-7,0-12.7-5.7-12.7-12.7s5.7-12.7,12.7-12.7s12.7,5.7,12.7,12.7S225,382.9,218,382.9z"/>
		</g>
	</g>
	<g>
		<g>
			<path class="st0" d="M144.4,261.9c-21,0-38.1,17.1-38.1,38.1c0,21,17.1,38.1,38.1,38.1s38.1-17.1,38.1-38.1
				C182.4,279,165.4,261.9,144.4,261.9z M144.4,312.7c-7,0-12.7-5.7-12.7-12.7c0-7,5.7-12.7,12.7-12.7s12.7,5.7,12.7,12.7
				C157.1,307,151.4,312.7,144.4,312.7z"/>
		</g>
	</g>
	<g>
		<g>
			<path class="st0" d="M162.1,160.4c-21,0-38.1,17.1-38.1,38.1s17.1,38.1,38.1,38.1s38.1-17.1,38.1-38.1S183.1,160.4,162.1,160.4z
				 M162.1,211.2c-7,0-12.7-5.7-12.7-12.7s5.7-12.7,12.7-12.7s12.7,5.7,12.7,12.7S169.2,211.2,162.1,211.2z"/>
		</g>
	</g>
	<g>
		<g>
			<path class="st0" d="M240.8,102.1c-21,0-38.1,17.1-38.1,38.1s17.1,38.1,38.1,38.1s38.1-17.1,38.1-38.1S261.8,102.1,240.8,102.1z
				 M240.8,152.8c-7,0-12.7-5.7-12.7-12.7s5.7-12.7,12.7-12.7s12.7,5.7,12.7,12.7S247.8,152.8,240.8,152.8z"/>
		</g>
	</g>
</g>
</svg>
