<?xml version="1.0" encoding="utf-8"?>
<!-- Generator: Adobe Illustrator 24.2.3, SVG Export Plug-In . SVG Version: 6.00 Build 0)  -->
<svg version="1.1" id="Capa_1" xmlns="http://www.w3.org/2000/svg" xmlns:xlink="http://www.w3.org/1999/xlink" x="0px" y="0px"
	 viewBox="0 0 512 512" style="enable-background:new 0 0 512 512;" xml:space="preserve">
<style type="text/css">
	.st0{fill:#000014;}
</style>
<g>
	<g>
		<path class="st0" d="M510.3,249.1c-2.6-4.9-7.6-7.9-13.1-7.9H482c-3.5-54.9-26.6-106.1-65.9-145.4C373.4,53.1,316.5,29.5,256,29.5
			S138.6,53.1,95.9,95.9c-28.2,28.2-48.5,63.3-58.7,101.4L2.6,247.6c-3.1,4.5-3.5,10.4-0.9,15.2s7.6,7.9,13.1,7.9H30
			c3.5,54.9,26.6,106.1,65.9,145.4c42.8,42.8,99.6,66.3,160.1,66.3s117.4-23.6,160.1-66.3c28.2-28.2,48.5-63.3,58.7-101.4l34.6-50.3
			C512.5,259.8,512.9,254,510.3,249.1z M395.2,395.2c-37.2,37.2-86.6,57.7-139.2,57.7c-52.6,0-102.1-20.5-139.2-57.7
			C79.6,358.1,59.1,308.6,59.1,256c0-8.2-6.6-14.8-14.8-14.8h-1.5L63,211.9c0,0,0,0,0,0l5.9-8.6l16.7,24.2c0,0,0,0,0,0l9.4,13.7
			h-1.5c-8.2,0-14.8,6.6-14.8,14.8c0,97.7,79.5,177.2,177.2,177.2c40.2,0,79.6-13.9,111-39.1c22.7-18.3,40.6-41.9,52-68.4l12,17.4
			c0.3,0.5,0.7,0.9,1.1,1.4c0,0,0,0,0,0C422.6,363.1,410.2,380.3,395.2,395.2z M135.2,247.6l-21.5-31.3
			c17.7-63.9,75.4-108,142.3-108c76.5,0,139.5,58.4,147,132.9h-14c-5.5,0-10.5,3-13.1,7.9c-2.6,4.9-2.2,10.7,0.9,15.2l21.5,31.3
			c-17.7,63.9-75.4,108-142.3,108c-76.5,0-139.5-58.4-147-132.9h14c5.5,0,10.5-3,13.1-7.9C138.7,258,138.4,252.2,135.2,247.6z
			 M449,300.1C449,300.1,449,300.1,449,300.1l-5.9,8.6l-16.7-24.2c0,0,0,0,0,0l-9.4-13.7h1.5c8.2,0,14.8-6.6,14.8-14.8
			c0-97.7-79.5-177.2-177.2-177.2c-40.2,0-79.6,13.9-111,39.1c-22.7,18.3-40.6,41.9-52,68.4l-12-17.4c-0.3-0.5-0.7-0.9-1.1-1.4
			c0,0,0,0,0,0c9.4-18.6,21.8-35.8,36.7-50.7c37.2-37.2,86.6-57.7,139.2-57.7c52.6,0,102.1,20.5,139.2,57.7
			c37.2,37.2,57.7,86.6,57.7,139.2c0,8.2,6.6,14.8,14.8,14.8h1.5L449,300.1z"/>
	</g>
</g>
<g>
	<g>
		<path class="st0" d="M267.3,241.2h-22.5c-4.3,0-7.7-3.5-7.7-7.7v-11.3c0-4.3,3.5-7.7,7.7-7.7h22.5c4.3,0,7.7,3.5,7.7,7.7
			c0,8.2,6.6,14.8,14.8,14.8s14.8-6.6,14.8-14.8c0-19.4-14.8-35.3-33.8-37.1v-7.9c0-8.2-6.6-14.8-14.8-14.8s-14.8,6.6-14.8,14.8v7.9
			c-18.9,1.8-33.8,17.7-33.8,37.1v11.3c0,20.6,16.7,37.3,37.3,37.3h22.5c4.3,0,7.7,3.5,7.7,7.7v11.3c0,4.3-3.5,7.7-7.7,7.7h-22.5
			c-4.3,0-7.7-3.5-7.7-7.7c0-8.2-6.6-14.8-14.8-14.8c-8.2,0-14.8,6.6-14.8,14.8c0,19.4,14.8,35.3,33.8,37.1v7.9
			c0,8.2,6.6,14.8,14.8,14.8s14.8-6.6,14.8-14.8v-7.9c18.9-1.8,33.8-17.7,33.8-37.1v-11.3C304.5,258,287.8,241.2,267.3,241.2z"/>
	</g>
</g>
</svg>
