<?xml version="1.0" encoding="utf-8"?>
<!-- Generator: Adobe Illustrator 24.2.3, SVG Export Plug-In . SVG Version: 6.00 Build 0)  -->
<svg version="1.1" id="圖層_1" xmlns="http://www.w3.org/2000/svg" xmlns:xlink="http://www.w3.org/1999/xlink" x="0px" y="0px"
	 viewBox="0 0 512 512" style="enable-background:new 0 0 512 512;" xml:space="preserve">
<style type="text/css">
	.st0{fill:#FFFFFF;}
</style>
<g>
	<path class="st0" d="M351.7,149.3h75.4l-14.7,14.7l18.3,18.3l45.9-45.9l-45.9-45.8l-18.3,18.3l14.7,14.7H325.8v49.7h25.8V149.3z"/>
	<path class="st0" d="M243,84.9v88.3h25.8V84.9l14.7,14.7l18.3-18.3L256,35.5L210,81.4l18.3,18.3L243,84.9z"/>
	<path class="st0" d="M99.7,164.1l-14.7-14.7h75.4v23.9h25.8v-49.7H84.9l14.7-14.7L81.4,90.6l-45.9,45.8l45.9,45.9L99.7,164.1z"/>
	<path class="st0" d="M464.1,206.3H48L36.3,334.7h13.8v141.9h411.9v-142h13.8L464.1,206.3z M325.8,450.7V334.6h110.3v116.1H325.8z
		 M75.9,334.6H300v116.1H75.9V334.6z M71.5,232.1h226.4l-7,76.7H64.5L71.5,232.1z M333.2,308.7l-7-76.7h114.2l7,76.7H333.2z"/>
</g>
</svg>
