<?xml version="1.0" encoding="utf-8"?>
<!-- Generator: Adobe Illustrator 24.2.3, SVG Export Plug-In . SVG Version: 6.00 Build 0)  -->
<svg version="1.1" id="bold" xmlns="http://www.w3.org/2000/svg" xmlns:xlink="http://www.w3.org/1999/xlink" x="0px" y="0px"
	 viewBox="0 0 512 512" style="enable-background:new 0 0 512 512;" xml:space="preserve">
<style type="text/css">
	.st0{fill:#0F2539;}
</style>
<path class="st0" d="M304,0H58.7C26.2,0,0,26.2,0,58.7v330.7C0,421.8,26.2,448,58.7,448h173.7c-18.8-25.6-29.7-56.7-29.7-90.7
	c0-85.3,69.3-154.7,154.7-154.7c1.7,0,3.6,0,5.3,0.2V58.7C362.7,26.2,336.4,0,304,0z M85.3,85.3h85.3c11.7,0,21.3,9.6,21.3,21.3
	s-9.6,21.3-21.3,21.3H85.3c-11.7,0-21.3-9.6-21.3-21.3S73.6,85.3,85.3,85.3z M192,298.7H85.3c-11.7,0-21.3-9.6-21.3-21.3
	S73.6,256,85.3,256H192c11.7,0,21.3,9.6,21.3,21.3S203.7,298.7,192,298.7z M277.3,213.3h-192c-11.7,0-21.3-9.6-21.3-21.3
	s9.6-21.3,21.3-21.3h192c11.7,0,21.3,9.6,21.3,21.3S289.1,213.3,277.3,213.3z"/>
<path class="st0" d="M357.3,469.3c-61.8,0-112-50.2-112-112s50.2-112,112-112s112,50.2,112,112S419.1,469.3,357.3,469.3z M357.3,288
	c-38.2,0-69.3,31.1-69.3,69.3s31.1,69.3,69.3,69.3s69.3-31.1,69.3-69.3S395.6,288,357.3,288z"/>
<path class="st0" d="M490.7,512c-5.5,0-10.9-2.1-15.1-6.3l-69.3-69.3c-8.3-8.3-8.3-21.8,0-30.2c8.3-8.3,21.8-8.3,30.2,0l69.3,69.3
	c8.3,8.3,8.3,21.8,0,30.2C501.6,509.9,496.1,512,490.7,512L490.7,512z"/>
</svg>
