<?xml version="1.0" encoding="utf-8"?>
<!-- Generator: Adobe Illustrator 24.2.3, SVG Export Plug-In . SVG Version: 6.00 Build 0)  -->
<svg version="1.1" id="圖層_1" xmlns="http://www.w3.org/2000/svg" xmlns:xlink="http://www.w3.org/1999/xlink" x="0px" y="0px"
	 viewBox="0 0 589 589" style="enable-background:new 0 0 589 589;" xml:space="preserve">
<style type="text/css">
	.st0{fill:#0F2539;}
</style>
<path class="st0" d="M545.2,122.9H388.6l156.6,44.7V122.9z"/>
<path class="st0" d="M545.2,522.6V228.5l-85.7,294.1H545.2z"/>
<path class="st0" d="M536.8,186l-231.2-67.2l-0.2-0.1v62.5c0,17.2-14,31.2-31.2,31.2c-17.2,0-31.2-14-31.2-31.2v-41.5
	c0-5.5,4.5-10,10-10c5.5,0,10,4.5,10,10v41.5c0,6.2,5,11.2,11.2,11.2c6.2,0,11.2-5,11.2-11.2v-68.3l-38.5-11.1c0.3,0,0.7,0,1,0
	c5.5,0,10-4.5,10-10V48.8c0-6.1,5.4-10.8,11.6-10.8h4.2c6.1,0,11.7,4.7,11.7,10.8v64l0.5,0.1l19.5,5.7V48.8
	c0-17.2-14.5-30.8-31.7-30.8h-4.2c-17.1,0-31.5,13.7-31.5,30.8v42.9c0,3.8,2.1,7.2,5.4,8.9l-90.7-26.2L40.7,458.6l384.2,111.5
	L536.8,186z"/>
</svg>
