<?xml version="1.0" encoding="utf-8"?>
<!-- Generator: Adobe Illustrator 24.2.3, SVG Export Plug-In . SVG Version: 6.00 Build 0)  -->
<svg version="1.1" id="Capa_1" xmlns="http://www.w3.org/2000/svg" xmlns:xlink="http://www.w3.org/1999/xlink" x="0px" y="0px"
	 viewBox="0 0 512 512" style="enable-background:new 0 0 512 512;" xml:space="preserve">
<style type="text/css">
	.st0{fill:#0F2539;}
</style>
<g>
	<g>
		<path class="st0" d="M468.5,160.7c1.7-8.6,2.5-17.2,2.5-25.7C471,60.6,410.4,0,336,0c-47.9,0-92,25.6-116.1,66.3
			C209.1,62.2,197.6,60,186,60c-47.6,0-87.1,35.2-94,80.9C40.7,147.8,1,191.8,1,245c0,57.9,47.1,105,105,105h90V227
			c0-24.8,20.2-45,45-45h30c24.8,0,45,20.2,45,45v123h90c57.9,0,105-47.1,105-105C511,211.8,494.9,180.4,468.5,160.7L468.5,160.7z"
			/>
	</g>
	<path class="st0" d="M324.2,409.4c-2.8-4.4-7.8-6.9-13-6.9H286V227c0-8.3-6.7-15-15-15h-30c-8.3,0-15,6.7-15,15v175.6h-25.2
		c-5.2,0-10.2,2.5-13,6.9c-3.3,5.2-3.2,11.8,0.3,16.7l55.6,79.4c2.8,4,7.4,6.4,12.3,6.4c4.9,0,9.5-2.4,12.3-6.4l55.6-79.4
		C327.4,421.2,327.5,414.6,324.2,409.4L324.2,409.4z"/>
</g>
</svg>
