<svg xmlns="http://www.w3.org/2000/svg" xmlns:xlink="http://www.w3.org/1999/xlink" width="183" height="185" viewBox="0 0 183 185">
  <defs>
    <clipPath id="clip-path">
      <circle id="Ellipse_146" data-name="Ellipse 146" cx="88.5" cy="88.5" r="88.5" transform="translate(171 3836)" fill="#394d63"/>
    </clipPath>
    <linearGradient id="linear-gradient" y1="0.5" x2="1" y2="0.5" gradientUnits="objectBoundingBox">
      <stop offset="0" stop-color="#394d63"/>
      <stop offset="1" stop-color="#e2f1f8"/>
    </linearGradient>
    <linearGradient id="linear-gradient-5" x1="5.327" y1="1.013" x2="5.948" y2="0.049" xlink:href="#linear-gradient"/>
  </defs>
  <g id="Group_135" data-name="Group 135" transform="translate(-467 -3233)">
    <circle id="Ellipse_134" data-name="Ellipse 134" cx="36.5" cy="36.5" r="36.5" transform="translate(577 3233)" fill="#394d63"/>
    <g id="Mask_Group_2" data-name="Mask Group 2" transform="translate(296 -595)" clip-path="url(#clip-path)">
      <circle id="Ellipse_133" data-name="Ellipse 133" cx="88.5" cy="88.5" r="88.5" transform="translate(171 3836)" fill="#394d63"/>
      <g id="Group_117" data-name="Group 117" transform="translate(24.661 3777.346)">
        <g id="Group_103" data-name="Group 103">
          <g id="Group_99" data-name="Group 99">
            <path id="Path_323" data-name="Path 323" d="M195.987,120.515a6.485,6.485,0,0,0-2.925,5.082l.2,69.03c.013,4.4,3.14,6.2,6.949,4l41.12-23.74a6.487,6.487,0,0,0,2.925-5.083l-.2-69.029c-.012-4.4-3.139-6.2-6.949-4Z" fill="#e2f1f8"/>
          </g>
          <g id="Group_102" data-name="Group 102">
            <g id="Group_100" data-name="Group 100">
              <path id="Path_324" data-name="Path 324" d="M202.3,145.531a1.915,1.915,0,0,0-.871,1.5l.01,3.666c0,.555.394.778.877.5l33.527-19.358a1.916,1.916,0,0,0,.871-1.508l-.01-3.666c0-.551-.394-.774-.877-.5Z" fill="#394d63"/>
            </g>
            <g id="Group_101" data-name="Group 101">
              <path id="Path_325" data-name="Path 325" d="M202.319,153.509a1.915,1.915,0,0,0-.87,1.508l.01,3.666c0,.555.393.774.876.5l33.528-19.358a1.91,1.91,0,0,0,.871-1.5l-.01-3.666c0-.555-.394-.778-.877-.5Z" fill="#394d63"/>
            </g>
            <path id="Path_326" data-name="Path 326" d="M215.407,159.449a4.554,4.554,0,0,0-2.064,3.575l0,.841c0,1.315.932,1.844,2.077,1.183l10.843-6.26a4.549,4.549,0,0,0,2.067-3.576l0-.841c0-1.312-.936-1.843-2.08-1.182Z" fill="#394d63"/>
          </g>
        </g>
        <g id="Group_108" data-name="Group 108">
          <g id="Group_104" data-name="Group 104">
            <path id="Path_327" data-name="Path 327" d="M224.263,59.968l.006,1.894a1.45,1.45,0,0,0,2.178,1.25l8.933-5.182a1.453,1.453,0,0,0,.723-1.259l-.006-1.894a1.45,1.45,0,0,0-2.178-1.25l-8.933,5.182A1.451,1.451,0,0,0,224.263,59.968Z" fill="url(#linear-gradient)"/>
          </g>
          <g id="Group_105" data-name="Group 105">
            <path id="Path_328" data-name="Path 328" d="M196.006,85.695l.005,1.9a1.45,1.45,0,0,0,2.176,1.252L235.4,67.358a1.45,1.45,0,0,0,.725-1.261l-.005-1.9a1.45,1.45,0,0,0-2.176-1.252L196.731,84.435A1.449,1.449,0,0,0,196.006,85.695Z" fill="url(#linear-gradient)"/>
          </g>
          <g id="Group_106" data-name="Group 106" opacity="0.53">
            <path id="Path_329" data-name="Path 329" d="M211.4,95.693l.006,1.9a1.45,1.45,0,0,0,2.175,1.252l21.873-12.628a1.453,1.453,0,0,0,.726-1.26l-.006-1.9A1.45,1.45,0,0,0,234,81.805L212.128,94.433A1.452,1.452,0,0,0,211.4,95.693Z" fill="url(#linear-gradient)"/>
          </g>
          <g id="Group_107" data-name="Group 107">
            <path id="Path_330" data-name="Path 330" d="M201.8,91.792l.006,1.9a1.451,1.451,0,0,0,2.176,1.252l31.446-18.156a1.45,1.45,0,0,0,.725-1.26l-.005-1.9a1.451,1.451,0,0,0-2.176-1.252L202.529,90.531A1.453,1.453,0,0,0,201.8,91.792Z" fill="url(#linear-gradient)"/>
          </g>
        </g>
        <g id="Group_109" data-name="Group 109">
          <path id="Path_331" data-name="Path 331" d="M280.919,196.133c1.5.865,1.5,2.264.018,3.127l-49.746,28.909a5.941,5.941,0,0,1-5.4,0l-30.68-17.713c-1.495-.863-1.506-2.263-.018-3.127L244.84,178.42a5.947,5.947,0,0,1,5.4,0Z" fill="url(#linear-gradient-5)"/>
        </g>
        <g id="Group_115" data-name="Group 115">
          <g id="Group_114" data-name="Group 114">
            <path id="Path_332" data-name="Path 332" d="M265.569,282.723s-6.576,1.715-9.149,1.715,0,2.573,4.289,2.859,8.291.572,9.149-.572-.191-4.383-.191-4.383Z" fill="#000014"/>
            <path id="Path_333" data-name="Path 333" d="M283.867,276.719s-6.576,1.715-9.149,1.715,0,2.573,4.289,2.859,8.291.572,9.149-.572-.191-4.383-.191-4.383Z" fill="#000014"/>
            <path id="Path_334" data-name="Path 334" d="M285.3,205.718s2.382,65.378,2.764,72.24a4.784,4.784,0,0,1-4.194.762s-7.719-42.886-8.863-53.941-3.05-14.868-3.05-14.868Z" fill="#000014"/>
            <path id="Path_335" data-name="Path 335" d="M260.9,209.53s-2.287,37.74,4.575,74.337c0,0,2.287,1.143,4.193-1.525,0,0,4.193-64.044,5.337-73.193S263.949,207.624,260.9,209.53Z" fill="#000014"/>
            <path id="Path_336" data-name="Path 336" d="M271.192,238.5s3.812-10.674,7.243-16.392,2.668-14.1,2.668-14.1l-12.961,1.144Z" fill="#000014"/>
            <path id="Path_337" data-name="Path 337" d="M257.993,172.222l-11.329-5.493s-3.433-3.432-4.291-4.119-6.522-2.059-7.552-1.888-2.918,1.717-2.4,2.06,5.321,2.918,5.493,3.947-1.717,2.4-1.03,3.09,2.231-.686,3.261-.686a16.757,16.757,0,0,1,3.948,1.373l10.985,6.35Z" fill="#fff"/>
            <g id="Group_110" data-name="Group 110">
              <path id="Path_338" data-name="Path 338" d="M282.152,161.211s-2.1-2.287-5.528,2.1-6.29,10.865-11.055,10.293-12.58-4.384-12.58-4.384-3.431,2.287-2.859,5.718c0,0,11.055,8.2,18.489,7.815s15.439-8.006,17.154-13.343S282.152,161.211,282.152,161.211Z" fill="#b0bec5"/>
            </g>
            <path id="Path_339" data-name="Path 339" d="M259.228,209.449c.684,3.418,10.424,5.126,16.12,4.215s11.83-3.705,11.628-10.31c0,0,.865-26.388.865-31.579a15.338,15.338,0,0,0-3.266-9.034s-3.19-3.645-13.214-1.6c0,0-8.168,1.779-11.927,7.817,0,0-2.6,6.633-1.73,20.476S259.228,209.449,259.228,209.449Z" fill="#b0bec5"/>
            <path id="Path_340" data-name="Path 340" d="M279.189,153.823s-.865,5.047,0,7.354c.144,1.153-4.9,5.047-9.373,4.037-2.6-.577-2.451-1.874-2.451-1.874s2.163-3.6,1.874-7.066S276.161,153.1,279.189,153.823Z" fill="#fff"/>
            <g id="Group_111" data-name="Group 111">
              <path id="Path_341" data-name="Path 341" d="M262.318,143.657a11.9,11.9,0,1,0,11.9-11.9A11.9,11.9,0,0,0,262.318,143.657Z" fill="#fff"/>
              <path id="Path_342" data-name="Path 342" d="M262.318,144.45s-.144,11.917,2.451,14.322,6.58-2.252,12.951-3.745c6.372-1.637-5.164-14.027-5.164-14.027Z" fill="#fff"/>
            </g>
            <g id="Group_112" data-name="Group 112">
              <path id="Path_343" data-name="Path 343" d="M247.6,183.441s-16.656-7.418-18.9-8.678-3.919-5.879-4.759-6.859-4.619-3.219-4.479-2.239,2.1,2.8,2.1,2.8a16.184,16.184,0,0,0-1.68,3.92c-.28,1.539,1.82,4.618,2.939,5.458a10.074,10.074,0,0,0,3.78,1.12s13.576,9.1,15.816,9.238S247.877,187.08,247.6,183.441Z" fill="#fff"/>
              <path id="Path_344" data-name="Path 344" d="M262.424,168.359s-2.1-2.287-5.528,2.1-6.29,10.864-11.055,10.293-12.58-4.384-12.58-4.384-3.431,2.287-2.859,5.718c0,0,11.055,8.2,18.489,7.815s15.439-8.006,17.155-13.343S262.424,168.359,262.424,168.359Z" fill="#b0bec5"/>
            </g>
            <g id="Group_113" data-name="Group 113">
              <path id="Path_345" data-name="Path 345" d="M267.094,133.615s-4.28.931-5.583,7.445c.558,2.792,4.467.558,5.956,4.281a20.464,20.464,0,0,0,2.419,4.839l.931-.372s0-2.978,1.3-2.978,1.675,3.536.93,5.025a5.5,5.5,0,0,1-2.419,2.233s1.861,3.164,2.791,3.537,4.281-.373,5.584-.931,3.723-3.164,5.584-6.142,3.536-8.189,2.419-11.725a6.827,6.827,0,0,0-3.722-4.467,9.454,9.454,0,0,0-4.1-2.978A12.972,12.972,0,0,0,267.094,133.615Z" fill="#000014"/>
              <path id="Path_346" data-name="Path 346" d="M266.141,141.484a9.4,9.4,0,0,1,1.429,8.291c-1.429,4.861.572,4.861,2.574,11.151s-3.717,13.723,1.715,22.872,20.014,8.006,26.59-1.143-3.717-15.725-4-24.017,6.29-13.152-1.144-18.87-10.578-12.008-19.727-9.435S262.138,137.481,266.141,141.484Z" fill="#000014"/>
            </g>
          </g>
        </g>
        <g id="Group_116" data-name="Group 116">
          <path id="Path_347" data-name="Path 347" d="M205.247,128.42l2.022-1.276v5.8l3.154-1.991v1.895l-5.176,3.266Z"/>
          <path id="Path_348" data-name="Path 348" d="M211.423,124.522l2.026-1.278v7.692l-2.026,1.278Z"/>
          <path id="Path_349" data-name="Path 349" d="M214.913,122.32l1.887-1.191,2.463,2.7v-4.256l1.9-1.2v7.692l-1.9,1.2-2.45-2.678v4.224l-1.9,1.2Z"/>
          <path id="Path_350" data-name="Path 350" d="M222.507,117.527l5.417-3.418v1.642l-3.391,2.14v1.223l3.146-1.985V118.7l-3.146,1.985V122.2l3.489-2.2v1.742l-5.515,3.481Z"/>
        </g>
      </g>
    </g>
  </g>
</svg>
