<svg xmlns="http://www.w3.org/2000/svg" xmlns:xlink="http://www.w3.org/1999/xlink" width="183" height="185" viewBox="0 0 183 185">
  <defs>
    <clipPath id="clip-path">
      <circle id="Ellipse_148" data-name="Ellipse 148" cx="88.5" cy="88.5" r="88.5" transform="translate(740 3860)" fill="#394d63"/>
    </clipPath>
    <linearGradient id="linear-gradient" x1="-0.381" y1="0.5" x2="1.381" y2="0.5" gradientUnits="objectBoundingBox">
      <stop offset="0" stop-color="#394d63"/>
      <stop offset="1" stop-color="#e2f1f8"/>
    </linearGradient>
  </defs>
  <g id="Group_137" data-name="Group 137" transform="translate(-1048 -3233)">
    <circle id="Ellipse_142" data-name="Ellipse 142" cx="36.5" cy="36.5" r="36.5" transform="translate(1158 3233)" fill="#394d63"/>
    <g id="Mask_Group_4" data-name="Mask Group 4" transform="translate(308 -619)" clip-path="url(#clip-path)">
      <circle id="Ellipse_141" data-name="Ellipse 141" cx="88.5" cy="88.5" r="88.5" transform="translate(740 3860)" fill="#394d63"/>
      <g id="Group_78" data-name="Group 78" transform="translate(252.661 3879.346)">
        <ellipse id="Ellipse_132" data-name="Ellipse 132" cx="26.713" cy="52.206" rx="26.713" ry="52.206" transform="matrix(0.505, -0.863, 0.863, 0.505, 542.282, 36.762)" fill="url(#linear-gradient)"/>
        <g id="Group_76" data-name="Group 76">
          <path id="Path_275" data-name="Path 275" d="M533.344,50.269s-7.678,4.423-8.857,24.659c.983,3.733,6.877,5.7,11.4,2.751S535.717,53.706,533.344,50.269Z" fill="#b0bec5"/>
          <path id="Path_276" data-name="Path 276" d="M572.379,72.12s17.583-7.831,19.947-9.16,4.137-6.206,5.023-7.24,4.876-3.4,4.728-2.364-2.216,2.955-2.216,2.955a17.064,17.064,0,0,1,1.773,4.137c.3,1.625-1.921,4.876-3.1,5.762s-3.989,1.182-3.989,1.182-14.332,9.6-16.7,9.752S572.084,75.962,572.379,72.12Z" fill="#fff"/>
          <path id="Path_277" data-name="Path 277" d="M536.594,167.9s-.456,3.349.153,4.719a3.437,3.437,0,0,0,4.718.913,48.462,48.462,0,0,0,4.567-4.262s4.871-2.588,5.327-3.958-1.217-2.587-2.587-2.283-5.328,2.74-7.154,2.74S537.2,166.222,536.594,167.9Z" fill="#000014"/>
          <path id="Path_278" data-name="Path 278" d="M531.577,96.614s4.259,70.307,4.79,72.345,6.057,3.206,7.082-.03c.65-2.053,2.254-67.117,2.254-67.117Z" fill="#000014"/>
          <path id="Path_279" data-name="Path 279" d="M550.682,172.08a1.093,1.093,0,0,0-.373.82c-.009.967.035,3.122.582,3.961a4.1,4.1,0,0,0,5.29.988c1.972-1.07,8.04-5.606,9.272-6.611a3.614,3.614,0,0,0,1.226-1.94,1.1,1.1,0,0,0-.623-1.275,5.28,5.28,0,0,0-3.647-.419c-2.009.675-4.54,2.852-7.277,2.735A6.727,6.727,0,0,0,550.682,172.08Z" fill="#000014"/>
          <path id="Path_280" data-name="Path 280" d="M560.084,97.373c-.308-2.922-3.8-3.871-7.024-2.876-6.145-.332-15.659-.069-15.992,4.7-.494,7.06,2.816,12.1,6.009,15.526,2.36,2.533,3.93,7.377,4.59,9.738.56,18.647,1.795,44.942,2.567,47.458,1.242,4.055,7.358,3.872,7.634-.076C559.106,158.5,560.084,97.373,560.084,97.373Z" fill="#000014"/>
          <path id="Path_281" data-name="Path 281" d="M560.1,99.575c-.722,3.607-11,5.411-17.017,4.449S530.6,100.113,530.81,93.141c0,0-.913-27.856-.913-33.335a16.194,16.194,0,0,1,3.447-9.537s3.367-3.848,13.95-1.683c0,0,8.621,1.878,12.589,8.252,0,0,2.74,7,1.827,21.614S560.1,99.575,560.1,99.575Z" fill="#b0bec5"/>
          <path id="Path_282" data-name="Path 282" d="M539.03,40.855s.913,5.327,0,7.763c-.152,1.218,5.175,5.327,9.894,4.262,2.74-.609,2.588-1.979,2.588-1.979s-2.284-3.806-1.979-7.459S542.226,40.094,539.03,40.855Z" fill="#fff"/>
          <g id="Group_74" data-name="Group 74">
            <path id="Path_283" data-name="Path 283" d="M556.839,30.124a12.557,12.557,0,1,1-12.558-12.558A12.557,12.557,0,0,1,556.839,30.124Z" fill="#fff"/>
            <path id="Path_284" data-name="Path 284" d="M556.839,30.961s.152,12.579-2.588,15.118-6.945-2.377-13.671-3.953c-6.725-1.728,5.452-14.807,5.452-14.807Z" fill="#fff"/>
          </g>
          <g id="Group_75" data-name="Group 75">
            <path id="Path_285" data-name="Path 285" d="M555.825,53.906s2.75-.786,5.894,3.733,7.662,10.413,9.823,11.395,5.109-.982,6.288-.982,4.322,5.5,3.143,8.252-8.841,4.126-10.806,4.126-14.735-7.663-16.5-11.985S549.145,54.1,555.825,53.906Z" fill="#b0bec5"/>
            <path id="Path_286" data-name="Path 286" d="M576.061,68.641a3.987,3.987,0,0,1,3.537-2.357c2.75-.2,5.894,5.108,5.7,8.055s-4.519,4.519-5.5,3.733S580.777,75.321,576.061,68.641Z" fill="#b0bec5"/>
          </g>
          <path id="Path_287" data-name="Path 287" d="M551.8,19.523s4.519.983,5.894,7.859c-.589,2.947-4.715.59-6.287,4.519a21.593,21.593,0,0,1-2.554,5.108l-.982-.393s0-3.143-1.376-3.143-1.768,3.733-.982,5.305a5.814,5.814,0,0,0,2.554,2.357s-1.965,3.34-2.947,3.733-4.519-.393-5.894-.982-3.93-3.34-5.9-6.484-3.732-8.645-2.554-12.378a7.21,7.21,0,0,1,3.93-4.715,9.986,9.986,0,0,1,4.322-3.143A13.691,13.691,0,0,1,551.8,19.523Z" fill="#000014"/>
          <path id="Path_288" data-name="Path 288" d="M553.958,51.221l-3.274-1.834s-8.383-.786-11.4-2.751l-1.572,2.227a9.574,9.574,0,0,0,7.466,4.584c5.371.524,7.859-1.571,7.859-1.571Z" fill="#cfdae4"/>
        </g>
        <g id="Group_77" data-name="Group 77">
          <path id="Path_289" data-name="Path 289" d="M569.561,15.881l3.1,1.917v8.039l4.831,2.991v2.627l-7.927-4.909Z" fill="#394d63"/>
          <path id="Path_290" data-name="Path 290" d="M579.02,21.737l3.1,1.921V34.324l-3.1-1.921Z" fill="#394d63"/>
          <path id="Path_291" data-name="Path 291" d="M584.363,25.047l2.892,1.79,3.772,8.237v-5.9l2.919,1.807V41.646l-2.919-1.808-3.752-8.179v5.856l-2.912-1.8Z" fill="#394d63"/>
          <path id="Path_292" data-name="Path 292" d="M596,32.25l8.3,5.138v2.277L599.1,36.449v1.695l4.817,2.983V43.3L599.1,40.319v2.1l5.343,3.308v2.416L596,42.915Z" fill="#394d63"/>
          <path id="Path_293" data-name="Path 293" d="M606.1,38.505l5.147,3.186a7.5,7.5,0,0,1,2.518,2.411,5.543,5.543,0,0,1,.837,2.941q0,1.615-.912,1.96t-2.786-.815l-1.694-1.05V51.1L606.1,49.17Zm3.11,6.473.758.468q.9.555,1.258.449c.242-.071.362-.279.362-.624a2.1,2.1,0,0,0-.314-1.045,3.376,3.376,0,0,0-1.183-1.082l-.881-.545Z" fill="#394d63"/>
          <path id="Path_294" data-name="Path 294" d="M621.189,56.755l-3.515-2.177-.488,1.459-3.161-1.958,3.765-8.334,3.378,2.092,3.765,13-3.243-2.007Zm-.642-2.7-1.106-4.519-1.094,3.156Z" fill="#394d63"/>
          <path id="Path_295" data-name="Path 295" d="M623.716,49.415l3.439,2.129,2.019,4.849,2.023-2.346,3.42,2.118-3.9,3.786v4.467l-3.1-1.921V58.03Z" fill="#394d63"/>
        </g>
      </g>
    </g>
  </g>
</svg>
