<svg xmlns="http://www.w3.org/2000/svg" xmlns:xlink="http://www.w3.org/1999/xlink" width="183" height="185" viewBox="0 0 183 185">
  <defs>
    <clipPath id="clip-path">
      <circle id="Ellipse_147" data-name="Ellipse 147" cx="88.5" cy="88.5" r="88.5" transform="translate(431 3849)" fill="#394d63"/>
    </clipPath>
    <linearGradient id="linear-gradient" y1="0.5" x2="1" y2="0.5" gradientUnits="objectBoundingBox">
      <stop offset="0" stop-color="#394d63"/>
      <stop offset="1" stop-color="#e2f1f8"/>
    </linearGradient>
    <linearGradient id="linear-gradient-2" x1="-2.426" y1="2.413" x2="-2.218" y2="-0.333" gradientUnits="objectBoundingBox">
      <stop offset="0" stop-color="#1ae5ff"/>
      <stop offset="0.259" stop-color="#63e8f8"/>
      <stop offset="0.704" stop-color="#eaeeee"/>
    </linearGradient>
    <linearGradient id="linear-gradient-3" x1="-45.102" y1="0.5" x2="-44.102" y2="0.5" gradientUnits="objectBoundingBox">
      <stop offset="0" stop-color="#b0bec5"/>
      <stop offset="0.246" stop-color="#b6c5cc"/>
      <stop offset="0.603" stop-color="#c9d8df"/>
      <stop offset="0.94" stop-color="#e2f1f8"/>
    </linearGradient>
    <linearGradient id="linear-gradient-4" x1="0" y1="0.5" x2="1" y2="0.5" xlink:href="#linear-gradient-3"/>
    <linearGradient id="linear-gradient-5" x1="0.379" y1="-0.704" x2="0.707" y2="2.574" xlink:href="#linear-gradient"/>
  </defs>
  <g id="Group_136" data-name="Group 136" transform="translate(-759 -3233)">
    <circle id="Ellipse_138" data-name="Ellipse 138" cx="36.5" cy="36.5" r="36.5" transform="translate(869 3233)" fill="#394d63"/>
    <g id="Mask_Group_3" data-name="Mask Group 3" transform="translate(328 -608)" clip-path="url(#clip-path)">
      <circle id="Ellipse_137" data-name="Ellipse 137" cx="88.5" cy="88.5" r="88.5" transform="translate(431 3849)" fill="#394d63"/>
      <g id="Group_98" data-name="Group 98" transform="translate(84.661 3694.346)">
        <g id="Group_79" data-name="Group 79" transform="translate(475.779 340.987)">
          <path id="Path_296" data-name="Path 296" d="M560.977,440.417a3.793,3.793,0,0,1,1.72,2.979c0,1.1-.779,1.542-1.731.993l-15.683-9.055a3.793,3.793,0,0,1-1.719-2.985c0-1.095.779-1.537,1.731-.987Z" transform="translate(-543.563 -431.126)" fill="url(#linear-gradient)"/>
        </g>
        <g id="Group_83" data-name="Group 83" transform="translate(381.651 176.384)">
          <path id="Path_297" data-name="Path 297" d="M410.469,177.3c-.072-.041-.143-.081-.213-.119-.092-.05-.184-.1-.274-.142s-.182-.088-.271-.128-.179-.078-.268-.114-.181-.07-.27-.1l-.052-.017-.02-.006c-.066-.023-.131-.045-.2-.064-.093-.028-.185-.054-.277-.076s-.184-.043-.274-.061-.2-.035-.293-.048c-.067-.009-.131-.014-.2-.02l-.029,0c-.024,0-.048-.006-.072-.007-.106-.008-.211-.011-.314-.01s-.233.006-.347.016a3.876,3.876,0,0,0-.384.056l-.01,0-.012,0a3.454,3.454,0,0,0-.446.123,3.236,3.236,0,0,0-.541.25l-4.433,2.576a3.277,3.277,0,0,1,.985-.373l.014,0a3.958,3.958,0,0,1,1.126-.057l.03,0a5.4,5.4,0,0,1,1.235.27l.019.006a7.636,7.636,0,0,1,1.349.621l121.182,70.15,4.433-2.576Z" transform="translate(-399.088 -176.384)" fill="url(#linear-gradient-2)"/>
          <path id="Path_298" data-name="Path 298" d="M611.358,299.679q0-.161-.015-.324c-.007-.108-.016-.216-.027-.326s-.022-.218-.036-.328-.03-.224-.048-.336l0-.01v-.006q-.025-.161-.055-.322t-.071-.349c-.026-.117-.052-.233-.081-.35s-.061-.237-.094-.355c-.025-.091-.052-.183-.08-.275l-.007-.022c-.006-.019-.01-.037-.016-.056-.035-.116-.072-.231-.111-.346s-.078-.227-.119-.341-.08-.218-.123-.326-.085-.217-.131-.324c-.034-.083-.07-.166-.106-.249l-.007-.016c-.008-.019-.015-.037-.024-.056q-.072-.162-.147-.324t-.17-.351c-.067-.134-.136-.268-.207-.4s-.157-.283-.238-.424c-.014-.025-.027-.05-.042-.074s-.032-.059-.05-.089c-.158-.268-.323-.532-.5-.79-.136-.2-.278-.406-.423-.6q-.145-.2-.3-.39-.127-.162-.258-.319t-.258-.3c-.085-.1-.172-.193-.26-.288-.017-.019-.036-.037-.053-.056l-.019-.02c-.067-.071-.134-.142-.2-.211-.093-.094-.187-.187-.282-.278s-.2-.185-.294-.274-.2-.174-.3-.259c-.05-.042-.1-.082-.151-.123l-.034-.028c-.038-.03-.074-.062-.112-.092-.1-.077-.2-.152-.293-.224s-.194-.14-.291-.207-.189-.127-.284-.188-.188-.118-.283-.173l-.066-.039-4.433,2.576a10.326,10.326,0,0,1,1.331.923l.033.027a12.8,12.8,0,0,1,1.226,1.146l.019.02a15.6,15.6,0,0,1,2.094,2.835l.042.075a16.051,16.051,0,0,1,.785,1.553l.008.019a14.951,14.951,0,0,1,.6,1.641l.006.022a12.728,12.728,0,0,1,.382,1.651v.006a10.18,10.18,0,0,1,.131,1.624l-.24,84.6a7.553,7.553,0,0,1-.136,1.44l-.008.041a5.3,5.3,0,0,1-.377,1.177c0,.007-.006.015-.009.023a3.9,3.9,0,0,1-.5.776c-.061.078-.12.16-.185.23a3.268,3.268,0,0,1-.731.6l4.433-2.576a3.269,3.269,0,0,0,.731-.6c.067-.07.123-.152.185-.229a3.554,3.554,0,0,0,.242-.3,4.234,4.234,0,0,0,.252-.457l.009-.022.008-.02c.051-.109.1-.221.143-.339s.081-.231.117-.352.063-.225.089-.342c.011-.048.019-.1.03-.147l.008-.041c.009-.047.02-.092.029-.14.017-.1.034-.211.047-.32s.025-.213.034-.322.015-.209.019-.316.007-.215.008-.324v-.019l.24-84.6Q611.362,299.831,611.358,299.679Z" transform="translate(-469.499 -216.034)" fill="url(#linear-gradient-3)"/>
          <g id="Group_80" data-name="Group 80" transform="translate(0 2.576)">
            <path id="Path_299" data-name="Path 299" d="M528.655,252.775a14.681,14.681,0,0,1,6.664,11.542l-.24,84.6c-.012,4.245-3.014,5.955-6.708,3.823L404.553,281.254a14.683,14.683,0,0,1-6.664-11.543l.24-84.6c.012-4.245,3.013-5.955,6.708-3.822Z" transform="translate(-397.889 -180.37)" fill="url(#linear-gradient-4)"/>
          </g>
          <g id="Group_81" data-name="Group 81" transform="translate(8.741 11.637)">
            <path id="Path_300" data-name="Path 300" d="M525.8,257.549a13.5,13.5,0,0,1,6.126,10.611l-.22,77.773c-.011,3.9-2.77,5.475-6.166,3.514l-108-62.311a13.5,13.5,0,0,1-6.126-10.611l.22-77.773c.012-3.9,2.77-5.475,6.166-3.514Z" transform="translate(-411.417 -194.394)" fill="#394d63"/>
          </g>
          <path id="Path_301" data-name="Path 301" d="M602.8,380.906h0a.9.9,0,0,1-.9-.9V352.889a.9.9,0,0,1,.9-.9h0a.9.9,0,0,1,.9.9V380A.9.9,0,0,1,602.8,380.906Z" transform="translate(-470.075 -238.52)" fill="#f9fbfc"/>
          <g id="Group_82" data-name="Group 82" transform="translate(2.297 55.349)">
            <path id="Path_302" data-name="Path 302" d="M403.364,262.305a4.206,4.206,0,0,1,1.907,3.3c0,1.214-.863,1.7-1.92,1.094a4.2,4.2,0,0,1-1.907-3.3C401.447,262.185,402.307,261.7,403.364,262.305Z" transform="translate(-401.444 -262.043)" fill="#fff"/>
          </g>
        </g>
        <g id="Group_87" data-name="Group 87" transform="translate(400.298 218.558)">
          <path id="Path_303" data-name="Path 303" d="M453.3,256.371a19.822,19.822,0,0,1,.712,3.339,15.79,15.79,0,0,1,.119,1.95c0,.194-.006.384-.015.571,0,.028,0,.058,0,.086-.009.178-.022.352-.037.524l-.01.1c-.017.172-.038.341-.061.506-.034.225-.062.384-.093.541-.041.2-.078.359-.117.512-.006.026-.013.052-.02.078-.039.149-.081.295-.127.437-.008.026-.017.052-.025.077-.047.144-.1.285-.151.422-.069.17-.124.3-.182.424-.083.178-.147.3-.213.42l-.038.069q-.1.177-.207.343l-.036.053c-.076.115-.154.227-.237.335s-.171.213-.258.312l-.037.043q-.128.141-.263.271l-.052.049c-.09.085-.183.167-.278.246l-.045.035c-.1.076-.193.149-.293.218-.124.085-.23.151-.337.213l-.061.035c-.1.059-.211.114-.32.165l-.068.031c-.112.051-.225.1-.342.143-.1.034-.157.052-.217.071a14.386,14.386,0,0,0-6.512-11.176c-3.613-2.086-6.55-.412-6.562,3.733.005.009.1.174.3.468-.085-.118-.171-.236-.254-.356-.162-.234-.271-.4-.379-.562l-.059-.089q-.173-.264-.338-.532l-.07-.114c-.112-.184-.224-.369-.331-.556s-.219-.387-.32-.573l-.059-.108q-.15-.279-.294-.562l-.051-.1q-.137-.271-.266-.545c-.116-.245-.2-.439-.289-.634l-.052-.12q-.126-.291-.245-.584c-.1-.253-.172-.438-.241-.624l-.035-.092c-.072-.2-.14-.391-.207-.587l-.039-.118q-.2-.6-.363-1.205l-.032-.12c-.051-.195-.1-.39-.145-.584l-.023-.1q-.064-.277-.119-.554c-.051-.26-.085-.455-.117-.649-.006-.042-.013-.084-.02-.125-.03-.2-.058-.389-.081-.583-.028-.247-.047-.429-.062-.61,0-.033-.007-.066-.009-.1-.015-.189-.027-.377-.034-.565,0-.04,0-.08,0-.12-.007-.193-.012-.384-.011-.574a12.651,12.651,0,0,1,.129-1.807,8.92,8.92,0,0,1,.728-2.507q.1-.218.216-.422c1.745-3.133,5.434-3.861,9.695-1.4,3.824,2.208,7.174,6.445,9.067,11,.125.3.245.6.357.9Q453.094,255.7,453.3,256.371Zm-9.674.311c2.2,1.272,3.993.247,4-2.28a8.75,8.75,0,0,0-3.974-6.884c-2.2-1.27-3.993-.254-4,2.28a8.772,8.772,0,0,0,3.974,6.884" transform="translate(-428.838 -241.654)" fill="url(#linear-gradient-5)"/>
          <path id="Path_304" data-name="Path 304" d="M447.388,301.721a19.891,19.891,0,0,1,.713,3.339,15.919,15.919,0,0,1,.118,1.95c0,.194-.006.384-.014.571,0,.028,0,.057,0,.086-.009.178-.022.352-.038.524l-.01.1c-.017.172-.037.341-.061.506-.034.225-.062.384-.093.541-.041.2-.078.359-.117.512-.006.026-.013.052-.02.078q-.059.224-.127.437l-.026.077c-.047.144-.1.285-.151.422-.068.17-.124.3-.182.424-.083.178-.147.3-.213.42l-.038.069q-.1.177-.207.343l-.035.053c-.077.115-.155.227-.237.335s-.171.213-.258.312l-.037.043q-.128.14-.263.271l-.052.049c-.09.085-.183.167-.278.245l-.045.035q-.143.114-.293.218c-.124.085-.23.151-.337.213l-.061.035c-.1.059-.211.114-.32.165l-.068.031c-.112.051-.225.1-.342.143-.1.034-.157.052-.216.071a14.388,14.388,0,0,0-6.513-11.176c-3.613-2.086-6.55-.412-6.562,3.733.005.009.1.174.3.468-.085-.118-.171-.236-.255-.356-.162-.234-.271-.4-.379-.562l-.059-.089q-.173-.264-.338-.532l-.07-.114c-.112-.184-.224-.369-.331-.556s-.219-.387-.321-.573l-.059-.108q-.15-.279-.294-.562l-.051-.1q-.137-.271-.266-.545c-.116-.245-.2-.439-.289-.634-.018-.04-.036-.08-.053-.12q-.126-.291-.245-.584c-.1-.253-.172-.438-.241-.624l-.035-.092c-.072-.2-.14-.391-.207-.587l-.039-.118c-.133-.4-.255-.8-.363-1.205l-.032-.12c-.051-.195-.1-.39-.145-.584l-.023-.1q-.064-.277-.119-.554c-.051-.26-.085-.455-.117-.649l-.019-.125c-.03-.2-.058-.389-.082-.583-.028-.247-.047-.429-.062-.61,0-.033-.007-.066-.009-.1-.015-.189-.026-.377-.034-.565,0-.04,0-.08,0-.12-.007-.193-.012-.384-.011-.574a12.664,12.664,0,0,1,.129-1.807,8.918,8.918,0,0,1,.728-2.507q.1-.218.216-.422c1.745-3.133,5.434-3.861,9.694-1.4,3.824,2.208,7.174,6.445,9.067,11,.125.3.245.6.357.9Q447.186,301.049,447.388,301.721Zm-9.673.311c2.2,1.272,3.993.247,4-2.28a8.749,8.749,0,0,0-3.974-6.884c-2.2-1.27-3.993-.254-4,2.28a8.77,8.77,0,0,0,3.974,6.884" transform="translate(-426.747 -257.7)" fill="url(#linear-gradient-5)"/>
          <g id="Group_86" data-name="Group 86" transform="translate(24.245 12.191)">
            <g id="Group_84" data-name="Group 84" transform="translate(2.694)">
              <path id="Path_305" data-name="Path 305" d="M529.592,308.086a3.312,3.312,0,0,1,1.5,2.6l-.018,6.333c0,.958-.68,1.345-1.515.863l-57.921-33.44a3.314,3.314,0,0,1-1.5-2.606l.018-6.332c0-.952.68-1.338,1.514-.857Z" transform="translate(-469.041 -265.445)" fill="#e2f1f8"/>
              <path id="Path_306" data-name="Path 306" d="M507.779,280.429a1.96,1.96,0,0,1,.89,1.538l-.011,3.747c0,.567-.4.8-.9.51l-34.27-19.786a1.958,1.958,0,0,1-.89-1.542l.01-3.746c0-.563.4-.792.9-.507Z" transform="translate(-469.912 -260.52)" fill="#000014"/>
              <path id="Path_307" data-name="Path 307" d="M503.615,325.506a1.96,1.96,0,0,1,.89,1.538l-.011,3.747c0,.567-.4.8-.9.51l-34.27-19.786a1.959,1.959,0,0,1-.89-1.542l.01-3.746c0-.564.4-.792.9-.507Z" transform="translate(-468.439 -276.47)" fill="#000014"/>
            </g>
            <g id="Group_85" data-name="Group 85" transform="translate(0 37.143)">
              <path id="Path_308" data-name="Path 308" d="M523.273,351.4a3.287,3.287,0,0,1,1.493,2.586l-.017,6.285c0,.951-.675,1.328-1.5.85l-57.484-33.188a3.276,3.276,0,0,1-1.493-2.58l.017-6.284c0-.952.675-1.335,1.5-.857Z" transform="translate(-464.269 -318.003)" fill="#e2f1f8"/>
            </g>
          </g>
        </g>
        <g id="Group_92" data-name="Group 92" transform="translate(492.033 220.903)">
          <g id="Group_88" data-name="Group 88" transform="translate(0.101)">
            <path id="Path_309" data-name="Path 309" d="M583.743,253.621,583.736,256A1.822,1.822,0,0,1,581,257.57l-11.219-6.509a1.822,1.822,0,0,1-.907-1.581l.007-2.379a1.822,1.822,0,0,1,2.736-1.57l11.219,6.509A1.82,1.82,0,0,1,583.743,253.621Z" transform="translate(-568.874 -245.283)" fill="url(#linear-gradient)"/>
          </g>
          <g id="Group_89" data-name="Group 89" transform="translate(0.067 11.834)">
            <path id="Path_310" data-name="Path 310" d="M619.214,292.413l-.007,2.383a1.822,1.822,0,0,1-2.733,1.573l-46.742-26.986a1.823,1.823,0,0,1-.91-1.583l.006-2.383a1.822,1.822,0,0,1,2.733-1.573L618.3,290.83A1.823,1.823,0,0,1,619.214,292.413Z" transform="translate(-568.822 -263.597)" fill="url(#linear-gradient)"/>
          </g>
          <g id="Group_90" data-name="Group 90" transform="translate(0 35.517)" opacity="0.53">
            <path id="Path_311" data-name="Path 311" d="M599.839,317.939l-.006,2.384a1.821,1.821,0,0,1-2.732,1.572l-27.471-15.86a1.821,1.821,0,0,1-.911-1.582l.007-2.384a1.822,1.822,0,0,1,2.732-1.573l27.471,15.86A1.822,1.822,0,0,1,599.839,317.939Z" transform="translate(-568.718 -300.249)" fill="url(#linear-gradient)"/>
          </g>
          <g id="Group_91" data-name="Group 91" transform="translate(0.034 23.675)">
            <path id="Path_312" data-name="Path 312" d="M611.914,306.554l-.007,2.384a1.822,1.822,0,0,1-2.733,1.573l-39.493-22.8a1.821,1.821,0,0,1-.911-1.583l.006-2.383a1.822,1.822,0,0,1,2.733-1.573L611,304.971A1.822,1.822,0,0,1,611.914,306.554Z" transform="translate(-568.77 -281.923)" fill="url(#linear-gradient)"/>
          </g>
        </g>
        <g id="Group_93" data-name="Group 93" transform="translate(482.305 265.089)">
          <path id="Path_313" data-name="Path 313" d="M566.344,320.006a6.34,6.34,0,1,1-6.34-6.34A6.34,6.34,0,0,1,566.344,320.006Z" transform="translate(-553.663 -313.666)" fill="#000014"/>
          <path id="Path_314" data-name="Path 314" d="M561.181,324.818l-2.646-1.935.963-1.317,1.373,1,2.783-3.548,1.283,1.007Z" transform="translate(-555.387 -315.561)" fill="#fff"/>
        </g>
        <g id="Group_94" data-name="Group 94" transform="translate(478.052 292.972)">
          <path id="Path_315" data-name="Path 315" d="M559.762,363.158a6.34,6.34,0,1,1-6.34-6.341A6.34,6.34,0,0,1,559.762,363.158Z" transform="translate(-547.081 -356.817)" fill="#000014"/>
          <path id="Path_316" data-name="Path 316" d="M554.6,367.969l-2.646-1.935.963-1.317,1.373,1,2.783-3.548,1.284,1.007Z" transform="translate(-548.805 -358.712)" fill="#fff"/>
        </g>
        <g id="Group_95" data-name="Group 95" transform="translate(352 190.113)">
          <path id="Path_317" data-name="Path 317" d="M393.791,219.928a9.1,9.1,0,0,1,4.127,7.148c-.007,2.641-1.869,3.7-4.153,2.383l-37.638-21.73A9.1,9.1,0,0,1,352,200.565c.007-2.625,1.869-3.686,4.153-2.368Z" transform="translate(-352 -197.631)" fill="url(#linear-gradient)"/>
        </g>
        <g id="Group_96" data-name="Group 96" transform="translate(507.429 311.974)">
          <path id="Path_318" data-name="Path 318" d="M621.591,401.722a6.327,6.327,0,0,1,2.869,4.969c-.005,1.836-1.3,2.573-2.888,1.656l-26.16-15.1a6.329,6.329,0,0,1-2.868-4.979c.005-1.825,1.3-2.562,2.887-1.645Z" transform="translate(-592.544 -386.225)" fill="url(#linear-gradient)"/>
        </g>
        <g id="Group_97" data-name="Group 97" transform="translate(445.822 226.815)">
          <path id="Path_319" data-name="Path 319" d="M497.2,254.432l1.293.7v4.184l2.018,1.1v1.367l-3.311-1.806Z" transform="translate(-497.201 -254.432)" fill="#fff"/>
          <path id="Path_320" data-name="Path 320" d="M503.314,257.768l1.3.706v5.55l-1.3-.707Z" transform="translate(-499.364 -255.612)" fill="#fff"/>
          <path id="Path_321" data-name="Path 321" d="M506.769,259.65l1.208.659,1.575,3.931v-3.071l1.219.665v5.55l-1.219-.665-1.568-3.9v3.048l-1.215-.664Z" transform="translate(-500.587 -256.278)" fill="#fff"/>
          <path id="Path_322" data-name="Path 322" d="M514.287,263.752l3.465,1.891v1.185l-2.169-1.184v.882l2.012,1.1v1.132l-2.012-1.1v1.094l2.232,1.218v1.257l-3.528-1.924Z" transform="translate(-503.247 -257.73)" fill="#fff"/>
        </g>
      </g>
    </g>
  </g>
</svg>
