<?xml version="1.0" encoding="utf-8"?>
<!-- Generator: Adobe Illustrator 24.2.3, SVG Export Plug-In . SVG Version: 6.00 Build 0)  -->
<svg version="1.1" id="Layer_1" xmlns="http://www.w3.org/2000/svg" xmlns:xlink="http://www.w3.org/1999/xlink" x="0px" y="0px"
	 viewBox="0 0 512 512" style="enable-background:new 0 0 512 512;" xml:space="preserve">
<style type="text/css">
	.st0{fill:#FFFFFF;}
</style>
<g>
	<path class="st0" d="M512,256c0-11.7-3.9-23.4-10.5-32.3c4-10.3,4.8-22.6,1.8-33.9c-3-11.3-9.8-21.6-18.5-28.5
		c1.2-11-1.2-23.1-7.1-33.2c-5.9-10.2-15.1-18.3-25.3-22.7c-1.7-11-7.1-22-15.4-30.3c-8.3-8.3-19.3-13.8-30.3-15.4
		c-4.5-10.2-12.6-19.4-22.7-25.3c-10.2-5.9-22.2-8.3-33.2-7.1c-6.9-8.7-17.2-15.5-28.5-18.5c-11.3-3-23.6-2.3-33.9,1.8
		C279.4,3.9,267.7,0,256,0s-23.4,3.9-32.3,10.5c-10.3-4.1-22.6-4.8-33.9-1.8c-11.3,3-21.6,9.8-28.5,18.5c-11-1.2-23.1,1.2-33.2,7.1
		c-10.2,5.9-18.3,15.1-22.7,25.3c-11,1.7-22,7.1-30.3,15.4c-8.3,8.3-13.8,19.3-15.4,30.3c-10.2,4.5-19.4,12.6-25.3,22.7
		c-5.9,10.2-8.3,22.2-7.1,33.2c-8.7,6.9-15.5,17.2-18.5,28.5c-3,11.3-2.3,23.6,1.8,33.9C3.9,232.6,0,244.3,0,256
		c0,11.7,3.9,23.4,10.5,32.3c-4.1,10.3-4.8,22.6-1.8,33.9c3,11.3,9.8,21.6,18.5,28.5c-1.2,11,1.2,23.1,7.1,33.2
		c5.9,10.2,15.1,18.3,25.3,22.7c1.7,11,7.1,22,15.4,30.3c8.3,8.3,19.3,13.8,30.3,15.4c4.5,10.2,12.6,19.4,22.7,25.3
		c10.2,5.9,22.2,8.3,33.2,7.1c6.9,8.7,17.2,15.5,28.5,18.5c11.3,3,23.6,2.3,33.9-1.8c8.9,6.6,20.6,10.5,32.3,10.5
		s23.4-3.9,32.3-10.5c10.3,4,22.6,4.8,33.9,1.8c11.3-3,21.6-9.8,28.5-18.5c11,1.2,23.1-1.2,33.2-7.1c10.2-5.9,18.3-15.1,22.7-25.3
		c11-1.7,22-7.1,30.3-15.4c8.3-8.3,13.8-19.3,15.4-30.3c10.2-4.5,19.4-12.6,25.3-22.7c5.9-10.2,8.3-22.2,7.1-33.2
		c8.7-6.9,15.5-17.2,18.5-28.5c3-11.3,2.3-23.6-1.8-33.9C508.1,279.4,512,267.7,512,256z M474.3,273.7c-3.4,2.4-5.6,6.1-6.1,10.2
		c-0.5,4.1,0.6,8.3,3.3,11.5c3,3.7,5,11.4,2.9,19.1c-2.1,7.7-7.6,13.4-12.1,15.1c-3.9,1.5-7,4.5-8.6,8.3s-1.5,8.1,0.2,11.9
		c2,4.3,1.8,12.3-2.1,19.2c-4,6.9-10.8,11-15.6,11.5c-4.1,0.4-7.9,2.5-10.4,5.8s-3.6,7.5-2.9,11.6c0.8,4.7-1.4,12.3-7,18
		c-5.6,5.6-13.3,7.8-18,7c-4.1-0.7-8.3,0.4-11.6,2.9c-3.3,2.5-5.4,6.3-5.8,10.4c-0.5,4.7-4.5,11.6-11.4,15.6
		c-6.9,4-14.9,4.1-19.2,2.1c-3.8-1.7-8.1-1.8-11.9-0.2c-3.8,1.6-6.8,4.7-8.3,8.6c-1.7,4.4-7.4,10-15.1,12.1
		c-7.7,2.1-15.4,0.1-19.1-2.9c-3.2-2.6-7.4-3.8-11.5-3.3c-4.1,0.5-7.8,2.8-10.2,6.1c-2.8,3.9-9.7,7.7-17.7,7.7s-14.9-3.9-17.7-7.7
		c-2.4-3.4-6.1-5.6-10.2-6.1c-5.6-0.7-9.6,1.8-11.5,3.3c-3.7,3-11.4,5-19.1,2.9c-7.7-2.1-13.4-7.6-15.1-12.1c-1.5-3.9-4.5-7-8.3-8.6
		c-3.8-1.6-8.2-1.5-11.9,0.2c-4.3,2-12.3,1.8-19.2-2.1c-6.9-4-11-10.8-11.5-15.6c-0.4-4.1-2.5-7.9-5.8-10.4
		c-3.3-2.5-7.5-3.6-11.6-2.9c-4.7,0.8-12.4-1.4-18-7c-5.6-5.6-7.8-13.3-7-18c0.7-4.1-0.4-8.3-2.9-11.6s-6.3-5.4-10.4-5.8
		c-4.7-0.5-11.6-4.6-15.6-11.4c-4-6.9-4.1-14.9-2.1-19.2c1.7-3.8,1.8-8.1,0.2-11.9s-4.7-6.8-8.6-8.3c-4.4-1.7-10-7.4-12.1-15.1
		c-2.1-7.7-0.1-15.4,2.9-19.1c2.6-3.2,3.8-7.4,3.3-11.5c-0.5-4.1-2.8-7.8-6.1-10.2C33.9,270.9,30,264,30,256s3.9-14.9,7.7-17.7
		c3.4-2.4,5.6-6.1,6.1-10.2c0.5-4.1-0.6-8.3-3.3-11.5c-3-3.7-5-11.4-2.9-19.1c2.1-7.7,7.6-13.4,12.1-15.1c3.9-1.5,7-4.5,8.6-8.3
		s1.5-8.1-0.2-11.9c-2-4.3-1.8-12.3,2.1-19.2c4-6.9,10.8-11,15.6-11.5c4.1-0.4,7.9-2.5,10.4-5.8c2.5-3.3,3.6-7.5,2.9-11.6
		c-0.8-4.7,1.4-12.3,7-18c5.6-5.6,13.3-7.8,18-7c4.1,0.7,8.3-0.4,11.6-2.9c3.3-2.5,5.4-6.3,5.8-10.4c0.5-4.7,4.5-11.6,11.4-15.5
		c6.9-4,14.9-4.1,19.2-2.1c3.8,1.7,8.1,1.8,11.9,0.2c3.8-1.6,6.8-4.7,8.3-8.6c1.7-4.4,7.4-10,15.1-12.1c7.7-2.1,15.4-0.1,19.1,2.9
		c3.2,2.6,7.4,3.8,11.5,3.3c4.1-0.5,7.8-2.8,10.2-6.1c2.8-3.8,9.7-7.7,17.7-7.7s14.9,3.9,17.7,7.7c2.4,3.4,6.1,5.6,10.2,6.1
		c4.1,0.5,8.3-0.6,11.5-3.3c3.7-3,11.4-5,19.1-2.9c7.7,2.1,13.4,7.6,15.1,12.1c1.5,3.9,4.5,7,8.3,8.6c3.8,1.6,8.1,1.5,11.9-0.2
		c4.3-2,12.3-1.8,19.2,2.1c6.9,4,11,10.8,11.5,15.6c0.4,4.1,2.5,7.9,5.8,10.4s7.5,3.6,11.6,2.9c4.7-0.8,12.3,1.4,18,7
		c5.6,5.6,7.8,13.3,7,18c-0.7,4.1,0.4,8.3,2.9,11.6c2.5,3.3,6.3,5.4,10.4,5.8c4.7,0.5,11.6,4.5,15.6,11.4c4,6.9,4.1,14.9,2.1,19.2
		c-1.7,3.8-1.8,8.1-0.2,11.9s4.7,6.8,8.6,8.3c4.4,1.7,10,7.4,12.1,15.1c2.1,7.7,0.1,15.4-2.9,19.1c-2.6,3.2-3.8,7.4-3.3,11.5
		c0.5,4.1,2.8,7.8,6.1,10.2c3.9,2.8,7.7,9.7,7.7,17.7S478.1,270.9,474.3,273.7L474.3,273.7z"/>
	<path class="st0" d="M352.4,200.8h-33.2v-35.9c0-33.3-27.1-60.5-60.5-60.5c-18.6,0-33.8,15.2-33.8,33.8c0,23.3-8.3,45.3-23.6,62.6
		h-57.8c-8.3,0-15,6.7-15,15v144.6c0,8.3,6.7,15,15,15h208.9c25.9,0,47.1-20.9,47.1-47.1V248C399.5,221.9,378.5,200.8,352.4,200.8
		L352.4,200.8z M192.8,345.4h-34.3V230.8h34.3V345.4z M369.5,328.3c0,9.5-7.8,17.1-17.1,17.1H222.8V221.8
		c20.8-23,32.1-52.4,32.1-83.6c0-2.1,1.7-3.8,3.8-3.8c16.8,0,30.5,13.7,30.5,30.5v50.9c0,8.3,6.7,15,15,15h48.2
		c9.5,0,17.1,7.7,17.1,17.1V328.3z"/>
</g>
</svg>
