<?xml version="1.0" encoding="utf-8"?>
<!-- Generator: Adobe Illustrator 24.2.3, SVG Export Plug-In . SVG Version: 6.00 Build 0)  -->
<svg version="1.1" id="Layer_1" xmlns="http://www.w3.org/2000/svg" xmlns:xlink="http://www.w3.org/1999/xlink" x="0px" y="0px"
	 viewBox="0 0 512 512" style="enable-background:new 0 0 512 512;" xml:space="preserve">
<style type="text/css">
	.st0{fill:#FFFFFF;}
</style>
<g>
	<path class="st0" d="M402.9,211.9V17.4H109.1v194.5H0l256,282.7l256-282.7H402.9z M67.5,241.8H139V47.3H373v194.5h71.6L256,450
		L67.5,241.8z"/>
	<path class="st0" d="M287.9,230.8c-7.1-5.4-11.3-7.6-19.3-11.6l-10.9-5.6c-1.9-1-4.2-2.6-7.2-4.7l-0.3-0.2
		c-5.2-4.1-6.2-7.6-6.2-12.3c0-7,5.4-12.8,12-12.8c7,0,12.1,2.1,18.1,12.6l2.6,4.6l22.6-14.6l-2-4c-6.2-12.3-15.1-20.1-26.5-23.5
		v-18.4h-26.1v18.3c-16.8,5.2-28.3,20.8-28.3,39.2c0,12.1,3.9,21.2,12.2,28.6c7.5,6.5,13.1,9.9,24.9,15.3
		c17.8,8.5,23.8,14.3,23.8,23c0,5.5-1.5,10.1-4.3,13.5c-3.7,4.3-8.6,6.3-15.4,6.3c-12.8,0-20-7.5-25.5-26.9l-1.8-6.3l-23.9,14.5
		l0.7,3.5c4.2,20.5,18.4,35.8,37.4,40.6V328h26.1v-18.3c8.6-2.1,16-6.6,22.1-13.2c8.1-8.8,12.2-19.6,12.2-32.3l0-0.2
		C304.4,249.2,299.2,239.2,287.9,230.8z"/>
</g>
</svg>
