<?xml version="1.0" encoding="utf-8"?>
<!-- Generator: Adobe Illustrator 24.2.3, SVG Export Plug-In . SVG Version: 6.00 Build 0)  -->
<svg version="1.1" id="Capa_1" xmlns="http://www.w3.org/2000/svg" xmlns:xlink="http://www.w3.org/1999/xlink" x="0px" y="0px"
	 viewBox="0 0 512 512" style="enable-background:new 0 0 512 512;" xml:space="preserve">
<style type="text/css">
	.st0{fill:#FFFFFF;}
</style>
<g>
	<g>
		<g>
			<path class="st0" d="M196.3,131.2c6.5,6.5,17.1,6.6,23.7,0.1c6.5-6.5,6.6-17.1,0.1-23.7L169,56.2c-9.5-9.6-22.1-14.7-35.5-14.7
				S107.4,46.7,98,56.2l-51.5,51.4c-6.5,6.5-6.5,17.2-0.1,23.7c3.3,3.3,7.5,4.9,11.9,4.9c4.3,0,8.5-1.6,11.8-4.9l46-45.8v341.4
				l-45.9-46.2c-6.5-6.5-17.2-6.6-23.7-0.1c-6.5,6.5-6.6,17.2-0.1,23.7l51.1,51.4c9.5,9.5,22.1,14.7,35.5,14.7
				c13.4,0,26.1-5.2,35.5-14.7l51.5-51.4c6.5-6.5,6.6-17.2,0.1-23.7c-6.5-6.5-17.2-6.6-23.7-0.1l-46.8,46.7V84.1L196.3,131.2z"/>
			<path class="st0" d="M453.7,437H286.2c-9.2,0-16.8,7.5-16.8,16.8s7.5,16.8,16.8,16.8h167.6c9.2,0,16.8-7.5,16.8-16.8
				S463,437,453.7,437z"/>
			<path class="st0" d="M286.2,75h167.6c9.2,0,16.8-7.5,16.8-16.8s-7.5-16.8-16.8-16.8H286.2c-9.2,0-16.8,7.5-16.8,16.8
				S276.9,75,286.2,75z"/>
			<path class="st0" d="M453.7,140.4H286.2c-9.2,0-16.8,7.5-16.8,16.8s7.5,16.8,16.8,16.8h167.6c9.2,0,16.8-7.5,16.8-16.8
				S463,140.4,453.7,140.4z"/>
			<path class="st0" d="M453.7,338.1H286.2c-9.2,0-16.8,7.5-16.8,16.8s7.5,16.8,16.8,16.8h167.6c9.2,0,16.8-7.5,16.8-16.8
				S463,338.1,453.7,338.1z"/>
			<path class="st0" d="M453.7,239.2H286.2c-9.2,0-16.8,7.5-16.8,16.8s7.5,16.8,16.8,16.8h167.6c9.2,0,16.8-7.5,16.8-16.8
				S463,239.2,453.7,239.2z"/>
		</g>
	</g>
</g>
</svg>
