<?xml version="1.0" encoding="utf-8"?>
<!-- Generator: Adobe Illustrator 24.2.3, SVG Export Plug-In . SVG Version: 6.00 Build 0)  -->
<svg version="1.1" id="圖層_1" xmlns="http://www.w3.org/2000/svg" xmlns:xlink="http://www.w3.org/1999/xlink" x="0px" y="0px"
	 viewBox="0 0 512 512" style="enable-background:new 0 0 512 512;" xml:space="preserve">
<style type="text/css">
	.st0{fill:#FFFFFF;}
</style>
<g id="_22-mobile">
	<g id="linear_color">
		<path class="st0" d="M290,446h-51c-5.5,0-10,4.5-10,10s4.5,10,10,10h51c5.5,0,10-4.5,10-10S295.6,446,290,446z"/>
		<path class="st0" d="M464,166c-20.2,0-37.6,5.6-50.4,16.3c-1.2,1-2.4,2.1-3.6,3.3V32c0-14.3-11.7-26-26-26H144
			c-14.3,0-26,11.7-26,26v26.6l-1.2-1.2c-16.4-16.4-43-16.4-59.4,0s-16.4,43,0,59.4l43.3,43.3c-22.3,6.5-35.1,29.8-28.6,52.1
			c2,6.8,5.6,12.9,10.6,17.9l24.6,24.6c-23,2.8-39.4,23.7-36.6,46.8c1.1,9.3,5.4,18,12,24.6l16.6,16.6c-23,2.8-39.4,23.7-36.6,46.8
			c1.1,9.3,5.4,18,12,24.6l43.3,43.3V480c0,14.4,11.6,26,26,26h192c5.5,0,10-4.5,10-10v-96c0-17,8-33,21.6-43.2L406,328
			c2.5-1.9,4-4.9,4-8v-80c0-39.8,24.3-50.9,44-53.4V496c0,5.5,4.5,10,10,10s10-4.5,10-10V176C474,170.5,469.5,166,464,166z M144,26
			h240c3.3,0,6,2.7,6,6v30H138V32C138,28.7,140.7,26,144,26z M65.1,87.1c-0.2-19.4,24-29.4,37.6-15.6L118,86.9v62.2l-46.5-46.5
			C67.4,98.5,65,92.9,65.1,87.1z M96.8,184.8c8.2-8.5,22.9-8.5,31.1,0l45.3,45.3c19.9,21.3-9.9,51-31.1,31.1l-45.3-45.3
			C88.2,207.3,88.2,193.4,96.8,184.8z M187.3,215.9l-10.9-10.9c4.9-47.3,47.2-81.6,94.5-76.7c47.3,4.9,81.6,47.2,76.7,94.5
			s-47.2,81.6-94.5,76.7c-23.4-2.4-44.7-14.3-59.1-32.9C203.5,250.2,200.7,229.4,187.3,215.9z M96.8,280.8c8.2-8.5,22.9-8.5,31.1,0
			l45.3,45.3c19.9,21.3-9.9,51-31.1,31.1l-45.3-45.3C88.2,303.3,88.2,289.4,96.8,280.8z M88.8,368.8c8.2-8.5,22.9-8.5,31.1,0
			l45.3,45.3c19.9,21.3-9.9,51-31.1,31.1l-45.3-45.3C80.2,391.3,80.2,377.4,88.8,368.8z M138,480v-10c3.8,1.1,7.7,1.6,11.6,1.6
			c23.2,0,42-18.8,42-41.9c0-1.2-0.1-2.4-0.2-3.6H326v60H144C140.7,486,138,483.3,138,480z M355.6,340.8
			c-18.6,14-29.5,35.9-29.6,59.2v6H184.4c-1.5-2.2-3.2-4.2-5-6.1l-16.6-16.6c23-2.8,39.4-23.7,36.6-46.8c-1.1-9.3-5.4-18-12-24.6
			l-24.6-24.6c6.2-0.7,12.1-2.8,17.3-6.1c37.1,45.2,103.9,51.8,149.1,14.7S381,192,343.9,146.8S240,94.9,194.7,132
			c-17.5,14.3-29.9,33.9-35.5,55.8c0,0-19.8-19.6-21.2-20.7V82h252v233L355.6,340.8z"/>
		<path class="st0" d="M253,224h17c8,0.3,14.3,7,14,15c-0.3,7.6-6.4,13.7-14,14h-25.2c-3.5,0.1-6-3.3-5.5-6.6
			c0.1-5.5-4.3-10.1-9.8-10.2s-10.1,4.3-10.2,9.8l0,0l0,1c-0.3,14.1,11,25.7,25,26c0.2,0,0.3,0,0.5,0h7.2v6c0,5.5,4.5,10,10,10
			s10-4.5,10-10v-6.1c19-1.4,33.3-17.9,31.9-36.9c-1.3-17.8-16-31.7-33.9-32h-17c-7.7,0-14-6.3-14-14s6.3-14,14-14h24.8
			c3.5,0.3,5.4,2.2,5.5,5.7c-0.2,5.5,4,10.2,9.6,10.4c5.5,0.2,10.2-4,10.4-9.6c0.6-14.1-10.3-26-24.4-26.6c-0.4,0-0.7,0-1.1,0H272
			v-6c0-5.5-4.5-10-10-10s-10,4.5-10,10v6c-18.8,0.6-33.5,16.2-33,35C219.6,209.4,234.6,224,253,224z"/>
	</g>
</g>
</svg>
